<mxfile host="Electron" agent="Mozilla/5.0 (X11; Linux x86_64) AppleWebKit/537.36 (KHTML, like Gecko) draw.io/26.1.1 Chrome/132.0.6834.210 Electron/34.3.3 Safari/537.36" version="26.1.1">
  <diagram name="Page-1" id="aGSPd7rXNpsMBcdFITat">
    <mxGraphModel dx="1114" dy="665" grid="1" gridSize="10" guides="1" tooltips="1" connect="1" arrows="1" fold="1" page="1" pageScale="1" pageWidth="827" pageHeight="1169" math="0" shadow="0">
      <root>
        <mxCell id="0" />
        <mxCell id="1" parent="0" />
        <mxCell id="0918lDWwyl2tyJ0I1Gjq-14" value="YUMMY_EVENT" style="shape=table;startSize=30;container=1;collapsible=0;childLayout=tableLayout;fontFamily=Helvetica;fontStyle=1;fillColor=#d5e8d4;strokeColor=#82b366;fontSize=13;" vertex="1" parent="1">
          <mxGeometry x="380" y="130" width="150" height="210" as="geometry" />
        </mxCell>
        <mxCell id="0918lDWwyl2tyJ0I1Gjq-15" value="" style="shape=tableRow;horizontal=0;startSize=0;swimlaneHead=0;swimlaneBody=0;strokeColor=inherit;top=0;left=0;bottom=0;right=0;collapsible=0;dropTarget=0;fillColor=none;points=[[0,0.5],[1,0.5]];portConstraint=eastwest;fontSize=12;" vertex="1" parent="0918lDWwyl2tyJ0I1Gjq-14">
          <mxGeometry y="30" width="150" height="22" as="geometry" />
        </mxCell>
        <mxCell id="0918lDWwyl2tyJ0I1Gjq-16" value="IsClosed" style="shape=partialRectangle;html=1;whiteSpace=wrap;connectable=0;strokeColor=inherit;overflow=hidden;fillColor=none;top=0;left=0;bottom=0;right=0;pointerEvents=1;fontFamily=Courier New;fontSize=14;" vertex="1" parent="0918lDWwyl2tyJ0I1Gjq-15">
          <mxGeometry width="150" height="22" as="geometry">
            <mxRectangle width="150" height="22" as="alternateBounds" />
          </mxGeometry>
        </mxCell>
        <mxCell id="0918lDWwyl2tyJ0I1Gjq-17" value="" style="shape=tableRow;horizontal=0;startSize=0;swimlaneHead=0;swimlaneBody=0;strokeColor=inherit;top=0;left=0;bottom=0;right=0;collapsible=0;dropTarget=0;fillColor=none;points=[[0,0.5],[1,0.5]];portConstraint=eastwest;fontSize=12;" vertex="1" parent="0918lDWwyl2tyJ0I1Gjq-14">
          <mxGeometry y="52" width="150" height="24" as="geometry" />
        </mxCell>
        <mxCell id="0918lDWwyl2tyJ0I1Gjq-18" value="Signaled" style="shape=partialRectangle;html=1;whiteSpace=wrap;connectable=0;strokeColor=inherit;overflow=hidden;fillColor=none;top=0;left=0;bottom=0;right=0;pointerEvents=1;fontFamily=Courier New;fontSize=14;" vertex="1" parent="0918lDWwyl2tyJ0I1Gjq-17">
          <mxGeometry width="150" height="24" as="geometry">
            <mxRectangle width="150" height="24" as="alternateBounds" />
          </mxGeometry>
        </mxCell>
        <mxCell id="0918lDWwyl2tyJ0I1Gjq-19" value="" style="shape=tableRow;horizontal=0;startSize=0;swimlaneHead=0;swimlaneBody=0;strokeColor=inherit;top=0;left=0;bottom=0;right=0;collapsible=0;dropTarget=0;fillColor=none;points=[[0,0.5],[1,0.5]];portConstraint=eastwest;fontSize=12;" vertex="1" parent="0918lDWwyl2tyJ0I1Gjq-14">
          <mxGeometry y="76" width="150" height="22" as="geometry" />
        </mxCell>
        <mxCell id="0918lDWwyl2tyJ0I1Gjq-20" value="Type" style="shape=partialRectangle;html=1;whiteSpace=wrap;connectable=0;strokeColor=inherit;overflow=hidden;fillColor=none;top=0;left=0;bottom=0;right=0;pointerEvents=1;fontFamily=Courier New;fontSize=14;" vertex="1" parent="0918lDWwyl2tyJ0I1Gjq-19">
          <mxGeometry width="150" height="22" as="geometry">
            <mxRectangle width="150" height="22" as="alternateBounds" />
          </mxGeometry>
        </mxCell>
        <mxCell id="0918lDWwyl2tyJ0I1Gjq-21" value="" style="shape=tableRow;horizontal=0;startSize=0;swimlaneHead=0;swimlaneBody=0;strokeColor=inherit;top=0;left=0;bottom=0;right=0;collapsible=0;dropTarget=0;fillColor=none;points=[[0,0.5],[1,0.5]];portConstraint=eastwest;fontSize=12;" vertex="1" parent="0918lDWwyl2tyJ0I1Gjq-14">
          <mxGeometry y="98" width="150" height="22" as="geometry" />
        </mxCell>
        <mxCell id="0918lDWwyl2tyJ0I1Gjq-22" value="TplLevel" style="shape=partialRectangle;html=1;whiteSpace=wrap;connectable=0;strokeColor=inherit;overflow=hidden;fillColor=none;top=0;left=0;bottom=0;right=0;pointerEvents=1;fontFamily=Courier New;fontSize=14;" vertex="1" parent="0918lDWwyl2tyJ0I1Gjq-21">
          <mxGeometry width="150" height="22" as="geometry">
            <mxRectangle width="150" height="22" as="alternateBounds" />
          </mxGeometry>
        </mxCell>
        <mxCell id="0918lDWwyl2tyJ0I1Gjq-23" value="" style="shape=tableRow;horizontal=0;startSize=0;swimlaneHead=0;swimlaneBody=0;strokeColor=inherit;top=0;left=0;bottom=0;right=0;collapsible=0;dropTarget=0;fillColor=none;points=[[0,0.5],[1,0.5]];portConstraint=eastwest;fontSize=12;" vertex="1" parent="0918lDWwyl2tyJ0I1Gjq-14">
          <mxGeometry y="120" width="150" height="22" as="geometry" />
        </mxCell>
        <mxCell id="0918lDWwyl2tyJ0I1Gjq-24" value="NotifyFn" style="shape=partialRectangle;html=1;whiteSpace=wrap;connectable=0;strokeColor=inherit;overflow=hidden;fillColor=none;top=0;left=0;bottom=0;right=0;pointerEvents=1;fontFamily=Courier New;fontSize=14;" vertex="1" parent="0918lDWwyl2tyJ0I1Gjq-23">
          <mxGeometry width="150" height="22" as="geometry">
            <mxRectangle width="150" height="22" as="alternateBounds" />
          </mxGeometry>
        </mxCell>
        <mxCell id="0918lDWwyl2tyJ0I1Gjq-25" value="" style="shape=tableRow;horizontal=0;startSize=0;swimlaneHead=0;swimlaneBody=0;strokeColor=inherit;top=0;left=0;bottom=0;right=0;collapsible=0;dropTarget=0;fillColor=none;points=[[0,0.5],[1,0.5]];portConstraint=eastwest;fontSize=12;" vertex="1" parent="0918lDWwyl2tyJ0I1Gjq-14">
          <mxGeometry y="142" width="150" height="24" as="geometry" />
        </mxCell>
        <mxCell id="0918lDWwyl2tyJ0I1Gjq-26" value="NotifyCtx" style="shape=partialRectangle;html=1;whiteSpace=wrap;connectable=0;strokeColor=inherit;overflow=hidden;fillColor=none;top=0;left=0;bottom=0;right=0;pointerEvents=1;fontFamily=Courier New;fontSize=14;" vertex="1" parent="0918lDWwyl2tyJ0I1Gjq-25">
          <mxGeometry width="150" height="24" as="geometry">
            <mxRectangle width="150" height="24" as="alternateBounds" />
          </mxGeometry>
        </mxCell>
        <mxCell id="0918lDWwyl2tyJ0I1Gjq-27" value="" style="shape=tableRow;horizontal=0;startSize=0;swimlaneHead=0;swimlaneBody=0;strokeColor=inherit;top=0;left=0;bottom=0;right=0;collapsible=0;dropTarget=0;fillColor=none;points=[[0,0.5],[1,0.5]];portConstraint=eastwest;fontSize=12;" vertex="1" parent="0918lDWwyl2tyJ0I1Gjq-14">
          <mxGeometry y="166" width="150" height="22" as="geometry" />
        </mxCell>
        <mxCell id="0918lDWwyl2tyJ0I1Gjq-28" value="TimerEmit" style="shape=partialRectangle;html=1;whiteSpace=wrap;connectable=0;strokeColor=inherit;overflow=hidden;fillColor=none;top=0;left=0;bottom=0;right=0;pointerEvents=1;fontFamily=Courier New;fontSize=14;" vertex="1" parent="0918lDWwyl2tyJ0I1Gjq-27">
          <mxGeometry width="150" height="22" as="geometry">
            <mxRectangle width="150" height="22" as="alternateBounds" />
          </mxGeometry>
        </mxCell>
        <mxCell id="0918lDWwyl2tyJ0I1Gjq-29" value="" style="shape=tableRow;horizontal=0;startSize=0;swimlaneHead=0;swimlaneBody=0;strokeColor=inherit;top=0;left=0;bottom=0;right=0;collapsible=0;dropTarget=0;fillColor=none;points=[[0,0.5],[1,0.5]];portConstraint=eastwest;fontSize=12;" vertex="1" parent="0918lDWwyl2tyJ0I1Gjq-14">
          <mxGeometry y="188" width="150" height="22" as="geometry" />
        </mxCell>
        <mxCell id="0918lDWwyl2tyJ0I1Gjq-30" value="TimerPeriod" style="shape=partialRectangle;html=1;whiteSpace=wrap;connectable=0;strokeColor=inherit;overflow=hidden;fillColor=none;top=0;left=0;bottom=0;right=0;pointerEvents=1;fontFamily=Courier New;fontSize=14;" vertex="1" parent="0918lDWwyl2tyJ0I1Gjq-29">
          <mxGeometry width="150" height="22" as="geometry">
            <mxRectangle width="150" height="22" as="alternateBounds" />
          </mxGeometry>
        </mxCell>
        <mxCell id="0918lDWwyl2tyJ0I1Gjq-31" value="" style="group" vertex="1" connectable="0" parent="1">
          <mxGeometry x="30" y="30" width="265" height="160" as="geometry" />
        </mxCell>
        <mxCell id="0918lDWwyl2tyJ0I1Gjq-1" value="" style="shape=table;startSize=0;container=1;collapsible=0;childLayout=tableLayout;" vertex="1" parent="0918lDWwyl2tyJ0I1Gjq-31">
          <mxGeometry x="75" width="190" height="160" as="geometry" />
        </mxCell>
        <mxCell id="0918lDWwyl2tyJ0I1Gjq-2" value="" style="shape=tableRow;horizontal=0;startSize=0;swimlaneHead=0;swimlaneBody=0;strokeColor=inherit;top=0;left=0;bottom=0;right=0;collapsible=0;dropTarget=0;fillColor=none;points=[[0,0.5],[1,0.5]];portConstraint=eastwest;" vertex="1" parent="0918lDWwyl2tyJ0I1Gjq-1">
          <mxGeometry width="190" height="32" as="geometry" />
        </mxCell>
        <mxCell id="0918lDWwyl2tyJ0I1Gjq-3" value="..." style="shape=partialRectangle;html=1;whiteSpace=wrap;connectable=0;strokeColor=#666666;overflow=hidden;fillColor=#f5f5f5;top=0;left=0;bottom=0;right=0;pointerEvents=1;fontFamily=Courier New;fontStyle=1;fontColor=#333333;" vertex="1" parent="0918lDWwyl2tyJ0I1Gjq-2">
          <mxGeometry width="190" height="32" as="geometry">
            <mxRectangle width="190" height="32" as="alternateBounds" />
          </mxGeometry>
        </mxCell>
        <mxCell id="0918lDWwyl2tyJ0I1Gjq-4" value="" style="shape=tableRow;horizontal=0;startSize=0;swimlaneHead=0;swimlaneBody=0;strokeColor=inherit;top=0;left=0;bottom=0;right=0;collapsible=0;dropTarget=0;fillColor=none;points=[[0,0.5],[1,0.5]];portConstraint=eastwest;" vertex="1" parent="0918lDWwyl2tyJ0I1Gjq-1">
          <mxGeometry y="32" width="190" height="32" as="geometry" />
        </mxCell>
        <mxCell id="0918lDWwyl2tyJ0I1Gjq-5" value="EvnentObject[I-1]" style="shape=partialRectangle;html=1;whiteSpace=wrap;connectable=0;strokeColor=inherit;overflow=hidden;fillColor=none;top=0;left=0;bottom=0;right=0;pointerEvents=1;fontFamily=Courier New;fontStyle=1" vertex="1" parent="0918lDWwyl2tyJ0I1Gjq-4">
          <mxGeometry width="190" height="32" as="geometry">
            <mxRectangle width="190" height="32" as="alternateBounds" />
          </mxGeometry>
        </mxCell>
        <mxCell id="0918lDWwyl2tyJ0I1Gjq-6" value="" style="shape=tableRow;horizontal=0;startSize=0;swimlaneHead=0;swimlaneBody=0;strokeColor=inherit;top=0;left=0;bottom=0;right=0;collapsible=0;dropTarget=0;fillColor=none;points=[[0,0.5],[1,0.5]];portConstraint=eastwest;" vertex="1" parent="0918lDWwyl2tyJ0I1Gjq-1">
          <mxGeometry y="64" width="190" height="32" as="geometry" />
        </mxCell>
        <mxCell id="0918lDWwyl2tyJ0I1Gjq-7" value="EventObject[I]" style="shape=partialRectangle;html=1;whiteSpace=wrap;connectable=0;strokeColor=inherit;overflow=hidden;fillColor=none;top=0;left=0;bottom=0;right=0;pointerEvents=1;fontFamily=Courier New;fontStyle=1" vertex="1" parent="0918lDWwyl2tyJ0I1Gjq-6">
          <mxGeometry width="190" height="32" as="geometry">
            <mxRectangle width="190" height="32" as="alternateBounds" />
          </mxGeometry>
        </mxCell>
        <mxCell id="0918lDWwyl2tyJ0I1Gjq-8" value="" style="shape=tableRow;horizontal=0;startSize=0;swimlaneHead=0;swimlaneBody=0;strokeColor=inherit;top=0;left=0;bottom=0;right=0;collapsible=0;dropTarget=0;fillColor=none;points=[[0,0.5],[1,0.5]];portConstraint=eastwest;" vertex="1" parent="0918lDWwyl2tyJ0I1Gjq-1">
          <mxGeometry y="96" width="190" height="32" as="geometry" />
        </mxCell>
        <mxCell id="0918lDWwyl2tyJ0I1Gjq-9" value="EventObject[I+1]" style="shape=partialRectangle;html=1;whiteSpace=wrap;connectable=0;strokeColor=inherit;overflow=hidden;fillColor=none;top=0;left=0;bottom=0;right=0;pointerEvents=1;fontFamily=Courier New;fontStyle=1" vertex="1" parent="0918lDWwyl2tyJ0I1Gjq-8">
          <mxGeometry width="190" height="32" as="geometry">
            <mxRectangle width="190" height="32" as="alternateBounds" />
          </mxGeometry>
        </mxCell>
        <mxCell id="0918lDWwyl2tyJ0I1Gjq-10" value="" style="shape=tableRow;horizontal=0;startSize=0;swimlaneHead=0;swimlaneBody=0;strokeColor=inherit;top=0;left=0;bottom=0;right=0;collapsible=0;dropTarget=0;fillColor=none;points=[[0,0.5],[1,0.5]];portConstraint=eastwest;" vertex="1" parent="0918lDWwyl2tyJ0I1Gjq-1">
          <mxGeometry y="128" width="190" height="32" as="geometry" />
        </mxCell>
        <mxCell id="0918lDWwyl2tyJ0I1Gjq-11" value="..." style="shape=partialRectangle;html=1;whiteSpace=wrap;connectable=0;strokeColor=#666666;overflow=hidden;fillColor=#f5f5f5;top=0;left=0;bottom=0;right=0;pointerEvents=1;fontFamily=Courier New;fontStyle=1;fontColor=#333333;" vertex="1" parent="0918lDWwyl2tyJ0I1Gjq-10">
          <mxGeometry width="190" height="32" as="geometry">
            <mxRectangle width="190" height="32" as="alternateBounds" />
          </mxGeometry>
        </mxCell>
        <mxCell id="0918lDWwyl2tyJ0I1Gjq-12" value="" style="shape=curlyBracket;whiteSpace=wrap;html=1;rounded=1;labelPosition=left;verticalLabelPosition=middle;align=right;verticalAlign=middle;" vertex="1" parent="0918lDWwyl2tyJ0I1Gjq-31">
          <mxGeometry x="35" width="20" height="160" as="geometry" />
        </mxCell>
        <mxCell id="0918lDWwyl2tyJ0I1Gjq-13" value="512 элементов" style="text;html=1;align=center;verticalAlign=middle;whiteSpace=wrap;rounded=0;rotation=-90;fontSize=14;" vertex="1" parent="0918lDWwyl2tyJ0I1Gjq-31">
          <mxGeometry x="-35" y="65" width="100" height="30" as="geometry" />
        </mxCell>
        <mxCell id="0918lDWwyl2tyJ0I1Gjq-32" style="edgeStyle=orthogonalEdgeStyle;rounded=0;orthogonalLoop=1;jettySize=auto;html=1;exitX=1;exitY=0.5;exitDx=0;exitDy=0;entryX=0.5;entryY=0;entryDx=0;entryDy=0;" edge="1" parent="1" source="0918lDWwyl2tyJ0I1Gjq-6" target="0918lDWwyl2tyJ0I1Gjq-14">
          <mxGeometry relative="1" as="geometry" />
        </mxCell>
      </root>
    </mxGraphModel>
  </diagram>
</mxfile>
